<?xml version="1.0" encoding="UTF-8"?>
<svg xmlns="http://www.w3.org/2000/svg" viewBox="0 0 449.01 530.01">
  <defs>
    <style>
      .cls-1 {
        fill: #340701;
      }

      .cls-1, .cls-2, .cls-3 {
        stroke-width: 0px;
      }

      .cls-4 {
        stroke-width: 10px;
      }

      .cls-4, .cls-5, .cls-6 {
        stroke: #db8758;
        stroke-miterlimit: 10;
      }

      .cls-4, .cls-6 {
        fill: none;
        stroke-linecap: round;
      }

      .cls-2, .cls-5 {
        fill: #db8758;
      }

      .cls-3 {
        fill: #fff;
      }

      .cls-5, .cls-6 {
        stroke-width: 15px;
      }
    </style>
  </defs>
  <g id="Shadow">
    <g>
      <path class="cls-1" d="M112.81,22.5h307.39c11.76,0,21.31,9.55,21.31,21.31v397.39c0,11.76-9.55,21.31-21.31,21.31H112.81c-11.76,0-21.31-9.55-21.31-21.31V43.81c0-11.76,9.55-21.31,21.31-21.31Z"/>
      <path class="cls-1" d="M420.19,30c7.61,0,13.81,6.19,13.81,13.81v397.39c0,7.61-6.19,13.81-13.81,13.81H112.81c-7.61,0-13.81-6.19-13.81-13.81V43.81c0-7.61,6.19-13.81,13.81-13.81h307.39M420.19,15H112.81c-15.91,0-28.81,12.9-28.81,28.81v397.39c0,15.91,12.9,28.81,28.81,28.81h307.39c15.91,0,28.81-12.9,28.81-28.81V43.81c0-15.91-12.9-28.81-28.81-28.81h-.01Z"/>
    </g>
    <g>
      <path class="cls-1" d="M52.81,82.5h307.39c11.76,0,21.31,9.55,21.31,21.31v397.39c0,11.76-9.55,21.31-21.31,21.31H52.81c-11.76,0-21.31-9.55-21.31-21.31V103.81c0-11.76,9.55-21.31,21.31-21.31Z"/>
      <path class="cls-1" d="M360.19,90c7.61,0,13.81,6.19,13.81,13.81v397.39c0,7.61-6.19,13.81-13.81,13.81H52.81c-7.61,0-13.81-6.19-13.81-13.81V103.81c0-7.61,6.19-13.81,13.81-13.81h307.39M360.19,75H52.81c-15.91,0-28.81,12.9-28.81,28.81v397.39c0,15.91,12.9,28.81,28.81,28.81h307.39c15.91,0,28.81-12.9,28.81-28.81V103.81c0-15.91-12.9-28.81-28.81-28.81h-.01Z"/>
    </g>
  </g>
  <g id="Back_File_Stroke">
    <g>
      <path class="cls-3" d="M98.81,7.5h307.39c11.76,0,21.31,9.55,21.31,21.31v397.39c0,11.76-9.55,21.31-21.31,21.31H98.81c-11.76,0-21.31-9.55-21.31-21.31V28.81c0-11.76,9.55-21.31,21.31-21.31Z"/>
      <path class="cls-2" d="M406.19,15c7.61,0,13.81,6.19,13.81,13.81v397.39c0,7.61-6.19,13.81-13.81,13.81H98.81c-7.61,0-13.81-6.19-13.81-13.81V28.81c0-7.61,6.19-13.81,13.81-13.81h307.39M406.19,0H98.81c-15.91,0-28.81,12.9-28.81,28.81v397.39c0,15.91,12.9,28.81,28.81,28.81h307.39c15.91,0,28.81-12.9,28.81-28.81V28.81c0-15.91-12.9-28.81-28.81-28.81h-.01Z"/>
    </g>
  </g>
  <g id="Back_File_Writing">
    <line class="cls-6" x1="126" y1="77.5" x2="378.97" y2="77.5"/>
    <line class="cls-6" x1="126" y1="177.5" x2="378.97" y2="177.5"/>
    <line class="cls-6" x1="126" y1="277.5" x2="378.97" y2="277.5"/>
    <line class="cls-6" x1="126" y1="377.5" x2="378.97" y2="377.5"/>
  </g>
  <g id="Front_File">
    <g>
      <path class="cls-3" d="M28.81,57.5h307.39c11.76,0,21.31,9.55,21.31,21.31v397.39c0,11.76-9.55,21.31-21.31,21.31H28.81c-11.76,0-21.31-9.55-21.31-21.31V78.81c0-11.76,9.55-21.31,21.31-21.31Z"/>
      <path class="cls-2" d="M336.19,65c7.61,0,13.81,6.19,13.81,13.81v397.39c0,7.61-6.19,13.81-13.81,13.81H28.81c-7.61,0-13.81-6.19-13.81-13.81V78.81c0-7.61,6.19-13.81,13.81-13.81h307.39M336.19,50H28.81c-15.91,0-28.81,12.9-28.81,28.81v397.39c0,15.91,12.9,28.81,28.81,28.81h307.39c15.91,0,28.81-12.9,28.81-28.81V78.81c0-15.91-12.9-28.81-28.81-28.81h-.01Z"/>
    </g>
  </g>
  <g id="Front_File_Writing">
    <line class="cls-6" x1="56" y1="327.5" x2="308.97" y2="327.5"/>
    <line class="cls-6" x1="56" y1="124.5" x2="308.97" y2="124.5"/>
    <line class="cls-6" x1="56" y1="427.5" x2="308.97" y2="427.5"/>
  </g>
  <g id="Front_File_Mouth">
    <line class="cls-6" x1="159.98" y1="261.77" x2="204.33" y2="267.33"/>
  </g>
  <g id="Front_File_Eyes">
    <ellipse class="cls-5" cx="112.5" cy="206.79" rx="5" ry="10.71"/>
    <ellipse class="cls-5" cx="252.5" cy="206.79" rx="5" ry="10.71"/>
  </g>
  <g id="Front_File_Brows">
    <line class="cls-4" x1="122.91" y1="192.5" x2="102.05" y2="192.5"/>
    <line class="cls-4" x1="262.91" y1="171.5" x2="242.05" y2="171.5"/>
  </g>
</svg>